<svg xmlns="http://www.w3.org/2000/svg" width="1200" height="675" viewBox="0 0 1200 675" role="img" aria-labelledby="title desc">
  <title id="title">Clean Business theme preview</title>
  <desc id="desc">A restrained executive presentation with navy type, blue accents, cards, and generous whitespace.</desc>
  <rect width="1200" height="675" fill="#F7F9FC"/>
  <rect x="0" width="18" height="675" fill="#2457D6"/>
  <text x="78" y="92" fill="#617086" font-family="Arial" font-size="18" letter-spacing="3">PPTKIT / CLEAN BUSINESS</text>
  <text x="78" y="178" fill="#10243E" font-family="Arial" font-weight="700" font-size="54">Clarity that moves</text>
  <text x="78" y="238" fill="#10243E" font-family="Arial" font-weight="700" font-size="54">decisions forward.</text>
  <text x="80" y="292" fill="#617086" font-family="Arial" font-size="23">Executive hierarchy · structured evidence · editable objects</text>
  <g transform="translate(78 370)">
    <rect width="310" height="190" rx="14" fill="#FFFFFF" stroke="#DDE4EF"/>
    <text x="26" y="38" fill="#617086" font-family="Arial" font-size="15">ACTIVATION</text>
    <text x="26" y="105" fill="#2457D6" font-family="Arial" font-size="52" font-weight="700">+18%</text>
    <rect x="26" y="142" width="220" height="10" rx="5" fill="#E6ECF6"/>
    <rect x="26" y="142" width="168" height="10" rx="5" fill="#2457D6"/>
  </g>
  <g transform="translate(414 370)">
    <rect width="310" height="190" rx="14" fill="#FFFFFF" stroke="#DDE4EF"/>
    <text x="26" y="38" fill="#617086" font-family="Arial" font-size="15">RETENTION</text>
    <text x="26" y="105" fill="#16A394" font-family="Arial" font-size="52" font-weight="700">72%</text>
    <path d="M28 151 L80 132 L132 138 L184 98 L236 112 L282 72" fill="none" stroke="#16A394" stroke-width="5"/>
  </g>
  <g transform="translate(750 370)">
    <rect width="372" height="190" rx="14" fill="#10243E"/>
    <text x="26" y="42" fill="#91A1B5" font-family="Arial" font-size="15">NEXT MOVE</text>
    <text x="26" y="96" fill="#FFFFFF" font-family="Arial" font-size="28" font-weight="700">Make onboarding</text>
    <text x="26" y="134" fill="#FFFFFF" font-family="Arial" font-size="28" font-weight="700">the growth loop.</text>
    <rect x="26" y="158" width="92" height="6" fill="#2457D6"/>
  </g>
</svg>
