<svg xmlns="http://www.w3.org/2000/svg" width="1200" height="675" viewBox="0 0 1200 675" role="img" aria-labelledby="title desc">
  <title id="title">Swiss Grid theme preview</title>
  <desc id="desc">Three representative slides showing modular asymmetry, divided comparison, and numeric data hierarchy.</desc>
  <rect width="1200" height="675" fill="#E9E5DC"/>
  <text x="56" y="54" font-family="Arial" font-size="14" font-weight="700" letter-spacing="2" fill="#E6402B">SWISS GRID</text>
  <text x="1144" y="54" text-anchor="end" font-family="Arial" font-size="13" fill="#5F5A50">MODULAR · ASYMMETRIC · FUNCTIONAL</text>
  <g transform="translate(56 86)">
    <rect width="336" height="492" fill="#F4F1EA" stroke="#CFC9BE"/>
    <rect width="8" height="492" fill="#E6402B"/>
    <text x="28" y="32" font-family="Arial" font-size="8" font-weight="700" fill="#E6402B">PPTKIT / PRESENTATION</text>
    <text x="308" y="32" text-anchor="end" font-family="Arial" font-size="9" fill="#5F5A50">01</text>
    <line x1="28" y1="46" x2="308" y2="46" stroke="#5F5A50" opacity=".3"/>
    <text x="30" y="156" font-family="Arial" font-size="36" fill="#111">SYSTEMS</text>
    <text x="30" y="198" font-family="Arial" font-size="36" fill="#111">BECOME</text>
    <text x="30" y="240" font-family="Arial" font-size="36" fill="#111">VISIBLE.</text>
    <line x1="30" y1="278" x2="118" y2="278" stroke="#E6402B" stroke-width="3"/>
    <rect x="224" y="112" width="84" height="224" fill="#FFF" stroke="#CFC9BE"/>
    <text x="242" y="166" font-family="Arial" font-size="30" fill="#E6402B">01</text>
    <text x="242" y="242" font-family="Arial" font-size="11" font-weight="700" fill="#111">STRICT</text>
    <text x="242" y="260" font-family="Arial" font-size="11" font-weight="700" fill="#111">GRID</text>
  </g>
  <g transform="translate(432 86)">
    <rect width="336" height="492" fill="#F4F1EA" stroke="#CFC9BE"/>
    <rect width="8" height="492" fill="#E6402B"/>
    <text x="28" y="32" font-family="Arial" font-size="8" font-weight="700" fill="#E6402B">POSITIONING</text>
    <text x="308" y="32" text-anchor="end" font-family="Arial" font-size="9" fill="#5F5A50">04</text>
    <line x1="28" y1="46" x2="308" y2="46" stroke="#5F5A50" opacity=".3"/>
    <text x="28" y="88" font-family="Arial" font-size="20" fill="#111">A longer discovery cycle.</text>
    <line x1="168" y1="126" x2="168" y2="390" stroke="#E6402B" stroke-width="3"/>
    <text x="28" y="160" font-family="Arial" font-size="9" fill="#5F5A50">BEFORE</text>
    <text x="28" y="206" font-family="Arial" font-size="20" fill="#111">A launch-day</text>
    <text x="28" y="231" font-family="Arial" font-size="20" fill="#111">spike.</text>
    <text x="194" y="160" font-family="Arial" font-size="9" fill="#E6402B">AFTER</text>
    <text x="194" y="206" font-family="Arial" font-size="20" fill="#111">A persistent</text>
    <text x="194" y="231" font-family="Arial" font-size="20" fill="#111">system.</text>
  </g>
  <g transform="translate(808 86)">
    <rect width="336" height="492" fill="#F4F1EA" stroke="#CFC9BE"/>
    <rect width="8" height="492" fill="#E6402B"/>
    <text x="28" y="32" font-family="Arial" font-size="8" font-weight="700" fill="#E6402B">PERFORMANCE</text>
    <text x="308" y="32" text-anchor="end" font-family="Arial" font-size="9" fill="#5F5A50">06</text>
    <line x1="28" y1="46" x2="308" y2="46" stroke="#5F5A50" opacity=".3"/>
    <text x="28" y="90" font-family="Arial" font-size="20" fill="#111">Throughput / week</text>
    <text x="28" y="176" font-family="Arial" font-size="54" fill="#E6402B">4.2×</text>
    <line x1="28" y1="202" x2="308" y2="202" stroke="#111"/>
    <rect x="28" y="232" width="238" height="24" fill="#E6402B"/>
    <rect x="28" y="276" width="174" height="24" fill="#111"/>
    <rect x="28" y="320" width="270" height="24" fill="#5F5A50"/>
    <text x="28" y="388" font-family="Arial" font-size="10" font-weight="700" fill="#111">01 / Instrument</text>
    <text x="28" y="410" font-family="Arial" font-size="10" font-weight="700" fill="#111">02 / Learn</text>
    <text x="28" y="432" font-family="Arial" font-size="10" font-weight="700" fill="#111">03 / Scale</text>
  </g>
  <text x="56" y="626" font-family="Arial" font-size="14" fill="#5F5A50">Square geometry · large numeric anchors · one red accent · strict reading order</text>
</svg>
